<?xml version="1.0" encoding="UTF-8"?>
<svg width="32px" height="32px" viewBox="0 0 32 32" version="1.1" xmlns="http://www.w3.org/2000/svg" xmlns:xlink="http://www.w3.org/1999/xlink">
    <title>Group 8</title>
    <g id="Web" stroke="none" stroke-width="1" fill="none" fill-rule="evenodd">
        <g id="SIGN-UP-(NEXT)" transform="translate(-422.000000, -32.000000)">
            <rect id="Rectangle" fill="#FFFFFF" x="0" y="0" width="1440" height="900"></rect>
            <g id="Group-11" transform="translate(422.000000, 32.000000)">
                <path d="M26.6666667,0 C29.6121853,0 32,2.38781467 32,5.33333333 L32,26.6666667 C32,29.6121853 29.6121853,32 26.6666667,32 L5.33333333,32 C2.38781467,32 0,29.6121853 0,26.6666667 L0,5.33333333 C0,2.38781467 2.38781467,0 5.33333333,0 L26.6666667,0 Z M26.6666667,1.33333333 L5.33333333,1.33333333 C3.20309216,1.33333333 1.46178549,2.99855995 1.34012359,5.09830295 L1.33333333,5.33333333 L1.33333333,26.6666667 C1.33333333,28.7969078 2.99855995,30.5382145 5.09830295,30.6598764 L5.33333333,30.6666667 L26.6666667,30.6666667 C28.7969078,30.6666667 30.5382145,29.00144 30.6598764,26.9016971 L30.6666667,26.6666667 L30.6666667,5.33333333 C30.6666667,3.20309216 29.00144,1.46178549 26.9016971,1.34012359 L26.6666667,1.33333333 Z" id="Rectangle" fill="#EEEFF7" fill-rule="nonzero"></path>
                <path d="M19.688,24 L20.8,22.8752 L14.1912,15.9896 L14.896,15.2552 L14.892,15.2592 L20.764,9.1416 L19.6688,8 C18.0456,9.6904 13.5144,14.4112 12,15.9896 C13.1248,17.1624 12.028,16.0192 19.688,24" id="arrow_left-[#334]" fill="#8397AB"></path>
            </g>
        </g>
    </g>
</svg>