<?xml version="1.0" encoding="UTF-8"?>
<svg width="40px" height="40px" viewBox="0 0 40 40" version="1.1" xmlns="http://www.w3.org/2000/svg" xmlns:xlink="http://www.w3.org/1999/xlink">
    <title>Group 20</title>
    <g id="Web" stroke="none" stroke-width="1" fill="none" fill-rule="evenodd">
        <g id="DASHBOARD-LANDING" transform="translate(-229.000000, -20.000000)">
            <g id="Group-7" transform="translate(32.000000, 20.000000)">
                <g id="Group-20" transform="translate(197.000000, 0.000000)">
                    <path d="M4,0 L36,0 C38.209139,-4.05812251e-16 40,1.790861 40,4 L40,36 C40,38.209139 38.209139,40 36,40 L4,40 C1.790861,40 2.705415e-16,38.209139 0,36 L0,4 C-2.705415e-16,1.790861 1.790861,4.05812251e-16 4,0 Z" id="Shape" fill="#F4F8FB" fill-rule="nonzero"></path>
                    <path d="M28,17.112 L26.8752,16 L19.9896,22.6088 L19.2552,21.904 L19.2592,21.908 L13.1416,16.036 L12,17.1312 C13.6904,18.7544 18.4112,23.2856 19.9896,24.8 C21.1624,23.6752 20.0192,24.772 28,17.112" id="arrow_down-[#339]" fill="#8397AB"></path>
                </g>
            </g>
        </g>
    </g>
</svg>