<svg id="Capa_1" enable-background="new 0 0 512 512" height="512" viewBox="0 0 512 512" width="512" xmlns="http://www.w3.org/2000/svg"><g><path d="m154.955 204.417v-12c0-4.142-3.358-7.5-7.5-7.5s-7.5 3.358-7.5 7.5v12c0 4.142 3.358 7.5 7.5 7.5s7.5-3.358 7.5-7.5z"/><path d="m279.852 204.417v-12c0-4.142-3.358-7.5-7.5-7.5s-7.5 3.358-7.5 7.5v12c0 4.142 3.358 7.5 7.5 7.5s7.5-3.358 7.5-7.5z"/><path d="m232.021 208.986c2.721-3.123 2.396-7.86-.727-10.582s-7.86-2.396-10.582.727c-5.727 6.571-15.899 6.564-21.62 0-2.721-3.123-7.459-3.448-10.582-.727s-3.448 7.458-.727 10.582c11.706 13.431 32.547 13.418 44.238 0z"/><path d="m179.902 307.864c-4.142 0-7.5 3.358-7.5 7.5s3.358 7.5 7.5 7.5h60c4.142 0 7.5-3.358 7.5-7.5s-3.358-7.5-7.5-7.5h-.668l-22.31-59.492c-1.098-2.927-3.896-4.867-7.022-4.867s-5.925 1.939-7.022 4.867l-22.309 59.492zm30.001-35.498 13.312 35.498h-26.625z"/><path d="m501.486 202.141c-5.242-13.865-20.401-20.87-34.211-16.31-10.309 3.438-24.004 9.131-45.933 13.058v-8.182c0-11.883-9.668-21.55-21.551-21.55h-18.734c-11.883 0-21.551 9.667-21.551 21.55v12.524h-24.341l-58.99-157.305c-10.3-27.469-36.934-45.926-66.273-45.926s-55.972 18.457-66.274 45.927l-36.267 96.713c-1.455 3.878.511 8.201 4.389 9.656 3.881 1.455 8.202-.513 9.656-4.389l36.267-96.712c8.119-21.65 29.108-36.195 52.229-36.195 23.122 0 44.111 14.545 52.229 36.194l57.301 152.803c-12.935 3.882-17.254 20.317-7.544 30.027l26.648 26.649v27.337c0 13.085 8.89 24.174 20.969 27.528v81.692c0 13.147 10.696 23.844 23.845 23.844h14.146c1.104 0 2.189-.082 3.253-.228 14.34 38.233-13.876 76.154-51.93 76.154-.003 0-.004 0-.006 0-23.118 0-44.109-14.552-52.231-36.21l-4.395-11.721c3.025-.966 5.216-3.798 5.216-7.143 0-4.142-3.358-7.5-7.5-7.5h-160c-4.142 0-7.5 3.358-7.5 7.5 0 3.345 2.191 6.177 5.216 7.143l-4.395 11.719c-10.798 28.796-43.01 43.439-71.812 32.646-.001 0-.003-.001-.004-.002-21.659-8.123-36.211-29.116-36.211-52.239 0-6.675 1.201-13.261 3.568-19.575l92.106-245.621c1.455-3.878-.511-8.201-4.389-9.656-3.88-1.455-8.202.511-9.656 4.389l-92.105 245.621c-3.002 8.004-4.721 16.362-4.721 24.842 0 38.549 31.975 70.793 70.917 70.793 28.669 0 55.709-17.548 66.353-45.931l6.236-16.629h132.796l6.237 16.631c10.304 27.482 36.937 45.943 66.274 45.943h.008c47.18 0 84.65-46.62 65.445-97.836 4.367-4.324 7.077-10.318 7.077-16.934v-26.339c0-4.142-3.357-7.5-7.5-7.5s-7.5 3.358-7.5 7.5v26.339c0 4.876-3.968 8.844-8.845 8.844h-14.146c-4.877 0-8.845-3.967-8.845-8.844v-80.594c11.771.163 22.098.729 31.836 1.723v22.532c0 4.142 3.357 7.5 7.5 7.5s7.5-3.358 7.5-7.5v-20.604c14.934 2.321 29.5 5.774 47.155 10.483 13.482 3.596 27.44-3.479 32.476-16.44 7.033-18.105 11.019-37.187 11.026-56.714.009-19.061-3.805-37.725-10.514-55.475zm-126.979-11.434c0-3.612 2.938-6.55 6.551-6.55h18.734c3.612 0 6.551 2.938 6.551 6.55v10.388c-9.302 1.093-19.835 1.842-31.836 2.063zm66.582 117.95c-22.909-4.829-43.792-7.063-73.806-7.072-.084-.003-.166-.005-.238-.005-7.448-.038-13.507-6.125-13.507-13.57v-30.443c0-1.989-.79-3.897-2.196-5.303l-28.846-28.846c-1.926-1.926-.578-5.186 2.148-5.186h42.47c33.166 0 56.794-3.919 74.043-8.335 19.218 33.547 16.033 71.616-.068 98.76zm45.902.24c-2.264 5.827-8.553 8.998-14.628 7.378-5.612-1.497-10.918-2.868-16.033-4.124 16.349-30.644 18.929-70.509-.406-106.557 6.464-2.103 11.609-4.033 15.928-5.479 8.019-2.221 13.611 2.065 15.602 7.328 6.065 16.047 9.138 32.925 9.13 50.164-.006 17.666-3.234 34.922-9.593 51.29z"/></g></svg>