<?xml version="1.0" encoding="UTF-8"?>
<svg width="32px" height="32px" viewBox="0 0 32 32" version="1.1" xmlns="http://www.w3.org/2000/svg" xmlns:xlink="http://www.w3.org/1999/xlink">
    <title>Group 8</title>
    <g id="Web" stroke="none" stroke-width="1" fill="none" fill-rule="evenodd">
        <g id="DASHBOARD-LANDING" transform="translate(-1254.000000, -24.000000)">
            <rect id="Rectangle" fill="#F4F8FB" x="0" y="0" width="1440" height="900"></rect>
            <rect id="Rectangle-Copy-2" fill="#FFFFFF" x="0" y="0" width="1440" height="80"></rect>
            <g id="Group-9" transform="translate(390.000000, 20.000000)" fill="#8397AB" fill-rule="nonzero">
                <g id="Group-11" transform="translate(864.000000, 4.000000)">
                    <path d="M26.6666667,0 C29.6121853,0 32,2.38781467 32,5.33333333 L32,26.6666667 C32,29.6121853 29.6121853,32 26.6666667,32 L5.33333333,32 C2.38781467,32 0,29.6121853 0,26.6666667 L0,5.33333333 C0,2.38781467 2.38781467,0 5.33333333,0 L26.6666667,0 Z M26.6666667,1.33333333 L5.33333333,1.33333333 C3.20309216,1.33333333 1.46178549,2.99855995 1.34012359,5.09830295 L1.33333333,5.33333333 L1.33333333,26.6666667 C1.33333333,28.7969078 2.99855995,30.5382145 5.09830295,30.6598764 L5.33333333,30.6666667 L26.6666667,30.6666667 C28.7969078,30.6666667 30.5382145,29.00144 30.6598764,26.9016971 L30.6666667,26.6666667 L30.6666667,5.33333333 C30.6666667,3.20309216 29.00144,1.46178549 26.9016971,1.34012359 L26.6666667,1.33333333 Z" id="Rectangle" fill-opacity="0.36"></path>
                    <path d="M15.5641026,24 C16.4666667,24 17.2051282,23.2615385 17.2051282,22.3589744 L13.9230769,22.3589744 C13.9230769,23.2615385 14.6533333,24 15.5641026,24 Z M20.4871795,19.0769231 L20.4871795,14.974359 C20.4871795,12.4553846 19.1415385,10.3466667 16.7948718,9.78871795 L16.7948718,9.23076923 C16.7948718,8.54974359 16.2451282,8 15.5641026,8 C14.8830769,8 14.3333333,8.54974359 14.3333333,9.23076923 L14.3333333,9.78871795 C11.9784615,10.3466667 10.6410256,12.4471795 10.6410256,14.974359 L10.6410256,19.0769231 L9,20.7179487 L9,21.5384615 L22.1282051,21.5384615 L22.1282051,20.7179487 L20.4871795,19.0769231 Z" id="Shape"></path>
                </g>
            </g>
        </g>
    </g>
</svg>